<svg xmlns="http://www.w3.org/2000/svg" xmlns:xlink="http://www.w3.org/1999/xlink" width="36.5" height="42.5" viewBox="0 0 73 85"><defs><path id="26sba" d="M2275 1223h45a6 6 0 0 1 6 6v57a6 6 0 0 1-6 6h-45a6 6 0 0 1-6-6v-57a6 6 0 0 1 6-6z"/><path id="26sbd" d="M2259 1302v-89h77v89zm10-73v57a6 6 0 0 0 6 6h45a6 6 0 0 0 6-6v-57a6 6 0 0 0-6-6h-45a6 6 0 0 0-6 6z"/><path id="26sbi" d="M2269 1294v-6a6 6 0 0 0 6 6h45a6 6 0 0 0 6-6v-57a6 6 0 0 0-6-6h-45a6 6 0 0 0-6 6v-10h57v73z"/><mask id="26sbc" width="2" height="2" x="-1" y="-1"><path fill="#fff" d="M2269 1223h57v69h-57z"/><use xlink:href="#26sba"/></mask><filter id="26sbb" width="99" height="111" x="2248" y="1202" filterUnits="userSpaceOnUse"><feOffset in="SourceGraphic" result="FeOffset1820Out"/><feGaussianBlur in="FeOffset1820Out" result="FeGaussianBlur1821Out" stdDeviation="4.4 4.4"/></filter><mask id="26sbh" width="2" height="2" x="-1" y="-1"><path fill="#fff" d="M2269 1223h57v69h-57z"/><use xlink:href="#26sba"/></mask><filter id="26sbg" width="83" height="96" x="2256" y="1210" filterUnits="userSpaceOnUse"><feOffset dy="1" in="SourceGraphic" result="FeOffset1837Out"/><feGaussianBlur in="FeOffset1837Out" result="FeGaussianBlur1838Out" stdDeviation="1.2 1.2"/></filter><filter id="26sbe" width="200%" height="200%" x="-50%" y="-50%"><feGaussianBlur in="SourceGraphic" result="FeGaussianBlur1843Out" stdDeviation="5 5"/></filter><mask id="26sbf"><use fill="#fff" xlink:href="#26sba"/></mask><filter id="26sbj" width="200%" height="200%" x="-50%" y="-50%"><feGaussianBlur in="SourceGraphic" result="FeGaussianBlur1850Out" stdDeviation="0 0"/></filter><mask id="26sbk"><use fill="#fff" xlink:href="#26sba"/></mask></defs><g><g transform="translate(-2261 -1215)"><g filter="url(#26sbb)"><use fill="none" stroke-opacity=".33" stroke-width="0" mask="url(&quot;#26sbc&quot;)" xlink:href="#26sba"/><use fill="#23253a" fill-opacity=".33" xlink:href="#26sba"/></g><use fill="#fff" fill-opacity=".14" stroke="#fff" stroke-opacity=".14" stroke-width="0" filter="url(#26sbe)" mask="url(&quot;#26sbf&quot;)" xlink:href="#26sbd"/><g filter="url(#26sbb)"><use fill="none" stroke-opacity=".33" stroke-width="0" mask="url(&quot;#26sbc&quot;)" xlink:href="#26sba"/><use fill="#23253a" fill-opacity=".33" xlink:href="#26sba"/></g><g filter="url(#26sbg)"><use fill="none" stroke-opacity=".22" stroke-width="0" mask="url(&quot;#26sbh&quot;)" xlink:href="#26sba"/><use fill-opacity=".22" xlink:href="#26sba"/></g><use fill="#fff" xlink:href="#26sba"/><use fill="#fff" fill-opacity=".14" stroke="#fff" stroke-opacity=".14" stroke-width="0" filter="url(#26sbe)" mask="url(&quot;#26sbf&quot;)" xlink:href="#26sbd"/><use fill="#fff" fill-opacity=".23" stroke="#fff" stroke-opacity=".23" stroke-width="0" filter="url(#26sbj)" mask="url(&quot;#26sbk&quot;)" xlink:href="#26sbi"/></g></g></svg>