<svg xmlns="http://www.w3.org/2000/svg" xmlns:xlink="http://www.w3.org/1999/xlink" width="36.5" height="42.5" viewBox="0 0 73 85"><defs><path id="19vwa" d="M2275 1339h45a6 6 0 0 1 6 6v57a6 6 0 0 1-6 6h-45a6 6 0 0 1-6-6v-57a6 6 0 0 1 6-6z"/><path id="19vwd" d="M2259 1418v-89h77v89zm10-73v57a6 6 0 0 0 6 6h45a6 6 0 0 0 6-6v-57a6 6 0 0 0-6-6h-45a6 6 0 0 0-6 6z"/><path id="19vwi" d="M2269 1410v-6a6 6 0 0 0 6 6h45a6 6 0 0 0 6-6v-57a6 6 0 0 0-6-6h-45a6 6 0 0 0-6 6v-10h57v73z"/><mask id="19vwc" width="2" height="2" x="-1" y="-1"><path fill="#fff" d="M2269 1339h57v69h-57z"/><use xlink:href="#19vwa"/></mask><filter id="19vwb" width="99" height="111" x="2248" y="1318" filterUnits="userSpaceOnUse"><feOffset in="SourceGraphic" result="FeOffset1869Out"/><feGaussianBlur in="FeOffset1869Out" result="FeGaussianBlur1870Out" stdDeviation="4.4 4.4"/></filter><mask id="19vwh" width="2" height="2" x="-1" y="-1"><path fill="#fff" d="M2269 1339h57v69h-57z"/><use xlink:href="#19vwa"/></mask><filter id="19vwg" width="83" height="96" x="2256" y="1326" filterUnits="userSpaceOnUse"><feOffset dy="1" in="SourceGraphic" result="FeOffset1886Out"/><feGaussianBlur in="FeOffset1886Out" result="FeGaussianBlur1887Out" stdDeviation="1.2 1.2"/></filter><filter id="19vwe" width="200%" height="200%" x="-50%" y="-50%"><feGaussianBlur in="SourceGraphic" result="FeGaussianBlur1892Out" stdDeviation="5 5"/></filter><mask id="19vwf"><use fill="#fff" xlink:href="#19vwa"/></mask><filter id="19vwj" width="200%" height="200%" x="-50%" y="-50%"><feGaussianBlur in="SourceGraphic" result="FeGaussianBlur1899Out" stdDeviation="0 0"/></filter><mask id="19vwk"><use fill="#fff" xlink:href="#19vwa"/></mask></defs><g><g transform="translate(-2261 -1331)"><g filter="url(#19vwb)"><use fill="none" stroke-opacity=".33" stroke-width="0" mask="url(&quot;#19vwc&quot;)" xlink:href="#19vwa"/><use fill="#23253a" fill-opacity=".33" xlink:href="#19vwa"/></g><use fill="#fff" fill-opacity=".14" stroke="#fff" stroke-opacity=".14" stroke-width="0" filter="url(#19vwe)" mask="url(&quot;#19vwf&quot;)" xlink:href="#19vwd"/><g filter="url(#19vwb)"><use fill="none" stroke-opacity=".33" stroke-width="0" mask="url(&quot;#19vwc&quot;)" xlink:href="#19vwa"/><use fill="#23253a" fill-opacity=".33" xlink:href="#19vwa"/></g><g filter="url(#19vwg)"><use fill="none" stroke-opacity=".22" stroke-width="0" mask="url(&quot;#19vwh&quot;)" xlink:href="#19vwa"/><use fill-opacity=".22" xlink:href="#19vwa"/></g><use fill="#fff" xlink:href="#19vwa"/><use fill="#fff" fill-opacity=".14" stroke="#fff" stroke-opacity=".14" stroke-width="0" filter="url(#19vwe)" mask="url(&quot;#19vwf&quot;)" xlink:href="#19vwd"/><use fill="#fff" fill-opacity=".23" stroke="#fff" stroke-opacity=".23" stroke-width="0" filter="url(#19vwj)" mask="url(&quot;#19vwk&quot;)" xlink:href="#19vwi"/></g></g></svg>