<svg xmlns="http://www.w3.org/2000/svg" xmlns:xlink="http://www.w3.org/1999/xlink" width="36.5" height="42.5" viewBox="0 0 73 85"><defs><path id="c5opa" d="M2275 1461h45a6 6 0 0 1 6 6v57a6 6 0 0 1-6 6h-45a6 6 0 0 1-6-6v-57a6 6 0 0 1 6-6z"/><path id="c5opd" d="M2259 1540v-89h77v89zm10-73v57a6 6 0 0 0 6 6h45a6 6 0 0 0 6-6v-57a6 6 0 0 0-6-6h-45a6 6 0 0 0-6 6z"/><path id="c5opi" d="M2269 1532v-6a6 6 0 0 0 5.97 6zm0-73h57v73h-5.97a6 6 0 0 0 5.97-6v-57a6 6 0 0 0-6-6h-45a6 6 0 0 0-6 6zm6 73h45.03-45.06.03z"/><mask id="c5opc" width="2" height="2" x="-1" y="-1"><path fill="#fff" d="M2269 1461h57v69h-57z"/><use xlink:href="#c5opa"/></mask><filter id="c5opb" width="99" height="111" x="2248" y="1440" filterUnits="userSpaceOnUse"><feOffset in="SourceGraphic" result="FeOffset1918Out"/><feGaussianBlur in="FeOffset1918Out" result="FeGaussianBlur1919Out" stdDeviation="4.4 4.4"/></filter><mask id="c5oph" width="2" height="2" x="-1" y="-1"><path fill="#fff" d="M2269 1461h57v69h-57z"/><use xlink:href="#c5opa"/></mask><filter id="c5opg" width="83" height="96" x="2256" y="1448" filterUnits="userSpaceOnUse"><feOffset dy="1" in="SourceGraphic" result="FeOffset1935Out"/><feGaussianBlur in="FeOffset1935Out" result="FeGaussianBlur1936Out" stdDeviation="1.2 1.2"/></filter><filter id="c5ope" width="200%" height="200%" x="-50%" y="-50%"><feGaussianBlur in="SourceGraphic" result="FeGaussianBlur1941Out" stdDeviation="5 5"/></filter><mask id="c5opf"><use fill="#fff" xlink:href="#c5opa"/></mask><filter id="c5opj" width="200%" height="200%" x="-50%" y="-50%"><feGaussianBlur in="SourceGraphic" result="FeGaussianBlur1948Out" stdDeviation="0 0"/></filter><mask id="c5opk"><use fill="#fff" xlink:href="#c5opa"/></mask></defs><g><g transform="translate(-2261 -1453)"><g filter="url(#c5opb)"><use fill="none" stroke-opacity=".33" stroke-width="0" mask="url(&quot;#c5opc&quot;)" xlink:href="#c5opa"/><use fill="#23253a" fill-opacity=".33" xlink:href="#c5opa"/></g><use fill="#fff" fill-opacity=".14" stroke="#fff" stroke-opacity=".14" stroke-width="0" filter="url(#c5ope)" mask="url(&quot;#c5opf&quot;)" xlink:href="#c5opd"/><g filter="url(#c5opb)"><use fill="none" stroke-opacity=".33" stroke-width="0" mask="url(&quot;#c5opc&quot;)" xlink:href="#c5opa"/><use fill="#23253a" fill-opacity=".33" xlink:href="#c5opa"/></g><g filter="url(#c5opg)"><use fill="none" stroke-opacity=".22" stroke-width="0" mask="url(&quot;#c5oph&quot;)" xlink:href="#c5opa"/><use fill-opacity=".22" xlink:href="#c5opa"/></g><use fill="#fff" xlink:href="#c5opa"/><use fill="#fff" fill-opacity=".14" stroke="#fff" stroke-opacity=".14" stroke-width="0" filter="url(#c5ope)" mask="url(&quot;#c5opf&quot;)" xlink:href="#c5opd"/><use fill="#fff" fill-opacity=".23" stroke="#fff" stroke-opacity=".23" stroke-width="0" filter="url(#c5opj)" mask="url(&quot;#c5opk&quot;)" xlink:href="#c5opi"/></g></g></svg>