<svg xmlns="http://www.w3.org/2000/svg" xmlns:xlink="http://www.w3.org/1999/xlink" width="12.5" height="14" viewBox="0 0 25 28"><defs><path id="w0ofa" d="M225 569h-15a3 3 0 0 1-3-3v-8c0-1.304.837-2.403 2-2.816V552.5a7.5 7.5 0 0 1 7.5-7.5h2a7.5 7.5 0 0 1 7.5 7.5v2.684c1.163.413 2 1.512 2 2.816v8a3 3 0 0 1-3 3zm-7.5-22a6.5 6.5 0 0 0-6.5 6.5v1.5h13v-1.5a6.5 6.5 0 0 0-6.5-6.5zm-1.5 13v3a1 1 0 0 0 1 1h1a1 1 0 0 0 1-1v-3a1 1 0 0 0-1-1h-1a1 1 0 0 0-1 1z"/><mask id="w0ofc" width="2" height="2" x="-1" y="-1"><path fill="#fff" d="M207 545h21v24h-21z"/><use xlink:href="#w0ofa"/></mask><filter id="w0ofb" width="47" height="51" x="194" y="532" filterUnits="userSpaceOnUse"><feOffset dy="1" in="SourceGraphic" result="FeOffset1131Out"/><feGaussianBlur in="FeOffset1131Out" result="FeGaussianBlur1132Out" stdDeviation="1.2 1.2"/></filter></defs><g><g opacity=".5" transform="translate(-205 -544)"><g filter="url(#w0ofb)"><use fill="none" stroke-opacity=".6" stroke-width="0" mask="url(&quot;#w0ofc&quot;)" xlink:href="#w0ofa"/><use fill-opacity=".6" xlink:href="#w0ofa"/></g><use fill="#c4bcff" xlink:href="#w0ofa"/></g></g></svg>