<svg xmlns="http://www.w3.org/2000/svg" xmlns:xlink="http://www.w3.org/1999/xlink" width="15" height="11.5" viewBox="0 0 30 23"><defs><path id="bm1ja" d="M445.25 198H462a1 1 0 0 1 1 1v2.25a1 1 0 0 1-1 1h-16.75a1 1 0 0 1-1-1V199a1 1 0 0 1 1-1zm-7.25 0h2.167a1 1 0 0 1 1 1v2.25a1 1 0 0 1-1 1H438a1 1 0 0 1-1-1V199a1 1 0 0 1 1-1zm7.25 7.375H462a1 1 0 0 1 1 1v2.25a1 1 0 0 1-1 1h-16.75a1 1 0 0 1-1-1v-2.25a1 1 0 0 1 1-1zm-7.25 0h2.156a1 1 0 0 1 1 1v2.25a1 1 0 0 1-1 1H438a1 1 0 0 1-1-1v-2.25a1 1 0 0 1 1-1zm7.25 7.375H462a1 1 0 0 1 1 1V216a1 1 0 0 1-1 1h-16.75a1 1 0 0 1-1-1v-2.25a1 1 0 0 1 1-1zm-7.25 0h2.156a1 1 0 0 1 1 1V216a1 1 0 0 1-1 1H438a1 1 0 0 1-1-1v-2.25a1 1 0 0 1 1-1z"/><mask id="bm1jc" width="2" height="2" x="-1" y="-1"><path fill="#fff" d="M437 198h26v19h-26z"/><use xlink:href="#bm1ja"/></mask><filter id="bm1jb" width="52" height="46" x="424" y="185" filterUnits="userSpaceOnUse"><feOffset dy="1" in="SourceGraphic" result="FeOffset1191Out"/><feGaussianBlur in="FeOffset1191Out" result="FeGaussianBlur1192Out" stdDeviation="1.2 1.2"/></filter></defs><g><g opacity=".5" transform="translate(-435 -197)"><g filter="url(#bm1jb)"><use fill="none" stroke-opacity=".6" stroke-width="0" mask="url(&quot;#bm1jc&quot;)" xlink:href="#bm1ja"/><use fill-opacity=".6" xlink:href="#bm1ja"/></g><use fill="#fff" xlink:href="#bm1ja"/></g></g></svg>