<svg xmlns="http://www.w3.org/2000/svg" xmlns:xlink="http://www.w3.org/1999/xlink" width="11" height="15.5" viewBox="0 0 22 31"><defs><path id="rdmsa" d="M1831 547c-.162.55-.734 8.69-9 17-8.37-8.336-9-17-9-17h.059a9.114 9.114 0 0 1-.06-1 9 9 0 0 1 9.001-9 9 9 0 0 1 9 9c0 .338-.022.671-.059 1zm-13-2a4 4 0 1 0 8 0 4 4 0 0 0-8 0z"/><mask id="rdmsc" width="2" height="2" x="-1" y="-1"><path fill="#fff" d="M1813 537h18v27h-18z"/><use xlink:href="#rdmsa"/></mask><filter id="rdmsb" width="44" height="54" x="1800" y="524" filterUnits="userSpaceOnUse"><feOffset dy="1" in="SourceGraphic" result="FeOffset1498Out"/><feGaussianBlur in="FeOffset1498Out" result="FeGaussianBlur1499Out" stdDeviation="1.2 1.2"/></filter></defs><g><g opacity=".5" transform="translate(-1811 -536)"><g filter="url(#rdmsb)"><use fill="none" stroke-opacity=".6" stroke-width="0" mask="url(&quot;#rdmsc&quot;)" xlink:href="#rdmsa"/><use fill-opacity=".6" xlink:href="#rdmsa"/></g><use fill="#fff" xlink:href="#rdmsa"/></g></g></svg>