<svg xmlns="http://www.w3.org/2000/svg" xmlns:xlink="http://www.w3.org/1999/xlink" width="13" height="14.5" viewBox="0 0 26 29"><defs><path id="ilx7a" d="M2086.304 214H2069c2.76 0 3.188-5.61 3.188-9.22 0-1.146.25-2.404.714-3.59.838-2.988 3.662-5.19 7.027-5.19 2.983 0 5.544 1.73 6.671 4.206.758 1.448 1.178 3.103 1.178 4.574 0 3.61.431 9.22 3.219 9.22h-4.693zm-2.445 2a3.99 3.99 0 0 1-3.859 3 3.991 3.991 0 0 1-3.859-3z"/><mask id="ilx7c" width="2" height="2" x="-1" y="-1"><path fill="#fff" d="M2069 196h22v23h-22z"/><use xlink:href="#ilx7a"/></mask><filter id="ilx7b" width="48" height="50" x="2056" y="183" filterUnits="userSpaceOnUse"><feOffset dy="1" in="SourceGraphic" result="FeOffset1291Out"/><feGaussianBlur in="FeOffset1291Out" result="FeGaussianBlur1292Out" stdDeviation="1.2 1.2"/></filter></defs><g><g opacity=".9" transform="translate(-2067 -194)"><g filter="url(#ilx7b)"><use fill="none" stroke-opacity=".6" stroke-width="0" mask="url(&quot;#ilx7c&quot;)" xlink:href="#ilx7a"/><use fill-opacity=".6" xlink:href="#ilx7a"/></g><use fill="#fff" xlink:href="#ilx7a"/></g></g></svg>