<svg xmlns="http://www.w3.org/2000/svg" xmlns:xlink="http://www.w3.org/1999/xlink" width="20" height="13.5" viewBox="0 0 40 27"><defs><path id="rhfea" d="M1977 219c0-5.523 4.477-10 10-10s10 4.477 10 10zm10-13a5 5 0 1 1 0-10 5 5 0 0 1 0 10zm13.841 13a13.946 13.946 0 0 0-3.809-7.754c3.93.497 6.968 3.775 6.968 7.754zM1996 208.826a3.996 3.996 0 0 1-3.49-2.036 7.968 7.968 0 0 0 2.483-5.65c.323-.082.657-.14 1.007-.14 2.209 0 4 1.752 4 3.913 0 2.161-1.791 3.913-4 3.913zM1969.5 205h2.5v-2.5a1.5 1.5 0 1 1 3 0v2.5h2.5a1.5 1.5 0 1 1 0 3h-2.5v2.5a1.5 1.5 0 1 1-3 0V208h-2.5a1.5 1.5 0 0 1 0-3z"/><mask id="rhfec" width="2" height="2" x="-1" y="-1"><path fill="#fff" d="M1968 196h36v23h-36z"/><use xlink:href="#rhfea"/></mask><filter id="rhfeb" width="62" height="50" x="1955" y="183" filterUnits="userSpaceOnUse"><feOffset dy="1" in="SourceGraphic" result="FeOffset1251Out"/><feGaussianBlur in="FeOffset1251Out" result="FeGaussianBlur1252Out" stdDeviation="1.2 1.2"/></filter></defs><g><g opacity=".5" transform="translate(-1966 -195)"><g filter="url(#rhfeb)"><use fill="none" stroke-opacity=".6" stroke-width="0" mask="url(&quot;#rhfec&quot;)" xlink:href="#rhfea"/><use fill-opacity=".6" xlink:href="#rhfea"/></g><use fill="#fff" xlink:href="#rhfea"/></g></g></svg>