<svg xmlns="http://www.w3.org/2000/svg" xmlns:xlink="http://www.w3.org/1999/xlink" width="13.5" height="14" viewBox="0 0 27 28"><defs><path id="4jboa" d="M2665 212v4a3 3 0 0 1-3 3h-17a3 3 0 0 1-3-3v-18a3 3 0 0 1 3-3h17a3 3 0 0 1 3 3v4l-2-2v-1a2 2 0 0 0-2-2h-15a2 2 0 0 0-2 2v16a2 2 0 0 0 2 2h15a2 2 0 0 0 2-2v-1zm-18-7h11.013l-2.216-2.667a2.5 2.5 0 0 1 3.536-3.536l4.9 5.9c.523.523.766 1.221.728 1.906a2.009 2.009 0 0 1 .022.662 2.51 2.51 0 0 1-.725 2.036l-4.957 5.96a2.519 2.519 0 0 1-3.561 0 2.516 2.516 0 0 1 0-3.56l2.247-2.701H2647a2 2 0 0 1 0-4z"/><mask id="4jboc" width="2" height="2" x="-1" y="-1"><path fill="#fff" d="M2642 195h23v24h-23z"/><use xlink:href="#4jboa"/></mask><filter id="4jbob" width="49" height="51" x="2629" y="182" filterUnits="userSpaceOnUse"><feOffset dy="1" in="SourceGraphic" result="FeOffset1365Out"/><feGaussianBlur in="FeOffset1365Out" result="FeGaussianBlur1366Out" stdDeviation="1.2 1.2"/></filter></defs><g><g opacity=".5" transform="translate(-2640 -194)"><g filter="url(#4jbob)"><use fill="none" stroke-opacity=".6" stroke-width="0" mask="url(&quot;#4jboc&quot;)" xlink:href="#4jboa"/><use fill-opacity=".6" xlink:href="#4jboa"/></g><use fill="#fff" xlink:href="#4jboa"/></g></g></svg>