<svg xmlns="http://www.w3.org/2000/svg" xmlns:xlink="http://www.w3.org/1999/xlink" width="13" height="13.5" viewBox="0 0 26 27"><defs><path id="6zbfa" d="M221.244 685.048c.047-.18.087-.362.114-.548a5.2 5.2 0 0 0-.114-.548h.156c0-2.42-1.97-4.38-4.4-4.38-2.43 0-4.4 1.96-4.4 4.38h.156c-.047.18-.087.362-.114.548.027.186.067.368.114.548h-.156c0 2.42 1.97 4.38 4.4 4.38 2.43 0 4.4-1.96 4.4-4.38zm-15.253-1.926c0-.513.383-.929.857-.929l2.283-.825a.788.788 0 0 1-.226-.147l-1.169-2.495c-.334-.338-.315-.907.043-1.27l1.948-1.969c.359-.363.92-.382 1.256-.044l2.467 1.182a.811.811 0 0 1 .211.454c.075-.036.14-.089.215-.122a.812.812 0 0 1-.161-.462l.943-2.628c0-.484.422-.877.942-.877h2.83c.52 0 .942.393.942.877l.943 2.628a.812.812 0 0 1-.17.473c.069.03.126.079.194.112a.811.811 0 0 1 .21-.455l2.468-1.182c.335-.338.897-.319 1.256.044l1.948 1.97c.358.362.378.93.043 1.27l-1.169 2.494a.789.789 0 0 1-.226.147l2.283.825c.473 0 .857.416.857.929v2.756c0 .513-.384.929-.857.929l-2.283.824c.08.04.16.081.226.148l1.169 2.495c.335.338.315.907-.043 1.27l-1.948 1.969c-.36.363-.92.382-1.256.044l-2.467-1.182a.81.81 0 0 1-.211-.455c-.068.033-.125.081-.194.112.098.138.17.295.17.473l-.943 2.628c0 .484-.422.877-.943.877H215.6c-.52 0-.942-.393-.942-.877l-.943-2.628c0-.173.068-.326.161-.462-.076-.034-.14-.086-.215-.123a.81.81 0 0 1-.21.455l-2.468 1.182c-.335.338-.897.319-1.256-.044l-1.948-1.97c-.358-.362-.377-.93-.043-1.27l1.169-2.494a.788.788 0 0 1 .226-.148l-2.283-.824c-.474 0-.857-.416-.857-.929z"/><mask id="6zbfc" width="2" height="2" x="-1" y="-1"><path fill="#fff" d="M206 673h22v23h-22z"/><use xlink:href="#6zbfa"/></mask><filter id="6zbfb" width="48" height="50" x="193" y="660" filterUnits="userSpaceOnUse"><feOffset dy="1" in="SourceGraphic" result="FeOffset1171Out"/><feGaussianBlur in="FeOffset1171Out" result="FeGaussianBlur1172Out" stdDeviation="1.2 1.2"/></filter></defs><g><g opacity=".5" transform="translate(-204 -672)"><g filter="url(#6zbfb)"><use fill="none" stroke-opacity=".6" stroke-width="0" mask="url(&quot;#6zbfc&quot;)" xlink:href="#6zbfa"/><use fill-opacity=".6" xlink:href="#6zbfa"/></g><use fill="#c4bcff" xlink:href="#6zbfa"/></g></g></svg>