<svg xmlns="http://www.w3.org/2000/svg" xmlns:xlink="http://www.w3.org/1999/xlink" width="13" height="12.5" viewBox="0 0 26 25"><defs><path id="rg6ua" d="M1174 195a9 9 0 0 1 8.055 13.02l3.805 3.805c.912.911.859 2.441-.117 3.418-.977.976-2.507 1.029-3.418.117l-3.662-3.661A9 9 0 1 1 1174 195zm-6 9a6 6 0 1 0 12 0 6 6 0 0 0-12 0z"/><mask id="rg6uc" width="2" height="2" x="-1" y="-1"><path fill="#fff" d="M1165 195h22v22h-22z"/><use xlink:href="#rg6ua"/></mask><filter id="rg6ub" width="48" height="49" x="1152" y="182" filterUnits="userSpaceOnUse"><feOffset dy="1" in="SourceGraphic" result="FeOffset1211Out"/><feGaussianBlur in="FeOffset1211Out" result="FeGaussianBlur1212Out" stdDeviation="1.2 1.2"/></filter></defs><g><g opacity=".5" transform="translate(-1163 -194)"><g filter="url(#rg6ub)"><use fill="none" stroke-opacity=".6" stroke-width="0" mask="url(&quot;#rg6uc&quot;)" xlink:href="#rg6ua"/><use fill-opacity=".6" xlink:href="#rg6ua"/></g><use fill="#fff" xlink:href="#rg6ua"/></g></g></svg>