<svg xmlns="http://www.w3.org/2000/svg" xmlns:xlink="http://www.w3.org/1999/xlink" width="16.5" height="16" viewBox="0 0 33 32"><defs><path id="tzjra" d="M1182.5 682a3.5 3.5 0 0 1 3.5 3.5v6a3.5 3.5 0 0 1-7 0v-6a3.5 3.5 0 0 1 3.5-3.5zm11-15a3.5 3.5 0 0 1 3.5 3.5v21a3.5 3.5 0 1 1-7 0v-21a3.5 3.5 0 0 1 3.5-3.5zm11 8a3.5 3.5 0 0 1 3.5 3.5v13a3.5 3.5 0 0 1-7 0v-13a3.5 3.5 0 0 1 3.5-3.5z"/><mask id="tzjrc" width="2" height="2" x="-1" y="-1"><path fill="#fff" d="M1179 667h29v28h-29z"/><use xlink:href="#tzjra"/></mask><filter id="tzjrb" width="55" height="55" x="1166" y="654" filterUnits="userSpaceOnUse"><feOffset dy="1" in="SourceGraphic" result="FeOffset1538Out"/><feGaussianBlur in="FeOffset1538Out" result="FeGaussianBlur1539Out" stdDeviation="1.2 1.2"/></filter></defs><g><g opacity=".5" transform="translate(-1177 -666)"><g filter="url(#tzjrb)"><use fill="none" stroke-opacity=".6" stroke-width="0" mask="url(&quot;#tzjrc&quot;)" xlink:href="#tzjra"/><use fill-opacity=".6" xlink:href="#tzjra"/></g><use fill="#fff" xlink:href="#tzjra"/></g></g></svg>