<svg xmlns="http://www.w3.org/2000/svg" xmlns:xlink="http://www.w3.org/1999/xlink" width="18.5" height="19.5" viewBox="0 0 37 39"><defs><path id="dz4za" d="M1133.5 330a1.5 1.5 0 0 1 1.5 1.5v.5h8a1 1 0 0 1 1 1v1h9a.99.99 0 0 1 .87.536l-5.809 4.453 5.819 4.462a.99.99 0 0 1-.88.549h-11a1 1 0 0 1-1-1v-1h-6v11.5a1.5 1.5 0 1 1-3 0v-22a1.5 1.5 0 0 1 1.5-1.5z"/><mask id="dz4zc" width="2" height="2" x="-1" y="-1"><path fill="#fff" d="M1132 330h22v25h-22z"/><use xlink:href="#dz4za"/></mask><filter id="dz4zb" width="66" height="69" x="1110" y="308" filterUnits="userSpaceOnUse"><feOffset in="SourceGraphic" result="FeOffset1442Out"/><feGaussianBlur in="FeOffset1442Out" result="FeGaussianBlur1443Out" stdDeviation="4.8 4.8"/></filter><mask id="dz4ze" width="2" height="2" x="-1" y="-1"><path fill="#fff" d="M1132 330h22v25h-22z"/><use xlink:href="#dz4za"/></mask><filter id="dz4zd" width="48" height="52" x="1119" y="317" filterUnits="userSpaceOnUse"><feOffset dy="1" in="SourceGraphic" result="FeOffset1459Out"/><feGaussianBlur in="FeOffset1459Out" result="FeGaussianBlur1460Out" stdDeviation="1.2 1.2"/></filter></defs><g><g transform="translate(-1123 -323)"><g filter="url(#dz4zb)"><use fill="none" stroke-opacity=".3" stroke-width="0" mask="url(&quot;#dz4zc&quot;)" xlink:href="#dz4za"/><use fill="#fffc02" fill-opacity=".3" xlink:href="#dz4za"/></g><g filter="url(#dz4zb)"><use fill="none" stroke-opacity=".3" stroke-width="0" mask="url(&quot;#dz4zc&quot;)" xlink:href="#dz4za"/><use fill="#fffc02" fill-opacity=".3" xlink:href="#dz4za"/></g><g filter="url(#dz4zd)"><use fill="none" stroke-opacity=".6" stroke-width="0" mask="url(&quot;#dz4ze&quot;)" xlink:href="#dz4za"/><use fill-opacity=".6" xlink:href="#dz4za"/></g><use fill="#fffc02" xlink:href="#dz4za"/></g></g></svg>