<svg xmlns="http://www.w3.org/2000/svg" xmlns:xlink="http://www.w3.org/1999/xlink" width="17" height="16.5" viewBox="0 0 34 33"><defs><path id="kg31a" d="M1179 1814.5c0-3.261 1.076-6.27 2.893-8.693l-2.782-2.782a1 1 0 1 1 1.414-1.414l2.68 2.679a14.455 14.455 0 0 1 10.295-4.29c3.659 0 7.001 1.355 9.553 3.591l2.335-2.335a.959.959 0 1 1 1.356 1.356l-2.335 2.335a14.444 14.444 0 0 1 3.591 9.553v10.5a4 4 0 0 1-4 4h-21a4 4 0 0 1-4-4zm10-6a4.5 4.5 0 1 0 9 0 4.5 4.5 0 0 0-9 0zm-6 1.5c0 5.523 4.7 10 10.5 10s10.5-4.477 10.5-10h-2.1c0 4.418-3.76 8-8.4 8-4.64 0-8.4-3.582-8.4-8z"/><mask id="kg31c" width="2" height="2" x="-1" y="-1"><path fill="#fff" d="M1178 1800h30v29h-30z"/><use xlink:href="#kg31a"/></mask><filter id="kg31b" width="56" height="56" x="1165" y="1787" filterUnits="userSpaceOnUse"><feOffset dy="1" in="SourceGraphic" result="FeOffset1632Out"/><feGaussianBlur in="FeOffset1632Out" result="FeGaussianBlur1633Out" stdDeviation="1.2 1.2"/></filter></defs><g><g opacity=".5" transform="translate(-1176 -1799)"><g filter="url(#kg31b)"><use fill="none" stroke-opacity=".6" stroke-width="0" mask="url(&quot;#kg31c&quot;)" xlink:href="#kg31a"/><use fill-opacity=".6" xlink:href="#kg31a"/></g><use fill="#fff" xlink:href="#kg31a"/></g></g></svg>